<svg width="1143" height="1143" viewBox="0 0 1143 1143" fill="none" xmlns="http://www.w3.org/2000/svg">
<rect width="1143" height="1143" rx="141" fill="white"/>
<path d="M218.017 239.464C219.167 241.331 276.064 317.482 403.508 487.886C451.928 552.542 491.44 605.991 491.44 606.853C491.44 607.571 471.181 630.129 446.468 656.71C411.123 694.785 235.403 884.73 218.736 903.121L215 907H246.035H276.926L291.869 890.764C300.058 881.856 346.611 831.568 395.175 779.125C443.738 726.538 491.584 674.813 501.498 664.037C511.412 653.118 519.745 644.353 520.176 644.353C520.607 644.21 524.486 649.238 528.94 655.273C533.395 661.307 577.504 720.504 627.074 786.596L717.017 907H822.622C880.669 907 928.227 906.713 928.227 906.282C928.227 905.707 900.64 868.637 715.006 620.502L637.85 517.197L641.298 513.461C643.166 511.449 669.459 482.857 699.776 450.098C755.236 390.04 766.3 378.115 849.778 288.027C874.922 260.872 895.18 238.601 895.037 238.458C894.749 238.314 880.525 238.458 863.571 238.889L832.68 239.607L796.041 279.119C735.552 344.206 635.12 452.684 623.194 465.759C617.016 472.656 611.125 478.259 610.263 478.403C609.257 478.547 576.211 435.299 536.699 382.425C497.187 329.407 456.813 275.24 446.899 262.165L428.939 238.17L323.047 238.027C245.747 237.883 217.299 238.314 218.017 239.464ZM426.066 310.298C437.129 325.24 494.17 401.678 553.079 480.271C611.844 558.864 673.339 641.049 689.575 662.744C705.667 684.44 743.023 734.297 772.334 773.378C801.645 812.459 828.369 848.235 831.674 852.689L837.852 861.022H788.57L739.288 860.879L709.115 820.361C692.448 798.091 595.895 668.779 494.314 533.001C392.732 397.224 309.541 285.585 309.254 284.866C308.967 284.004 326.927 283.43 357.387 283.43H406.094L426.066 310.298Z" fill="black"/>
</svg>
