<?xml version="1.0" standalone="no"?>
<!DOCTYPE svg PUBLIC "-//W3C//DTD SVG 20010904//EN"
 "http://www.w3.org/TR/2001/REC-SVG-20010904/DTD/svg10.dtd">
<svg version="1.0" xmlns="http://www.w3.org/2000/svg"
 width="740.000000pt" height="740.000000pt" viewBox="0 0 740.000000 740.000000"
 preserveAspectRatio="xMidYMid meet">

<g transform="translate(0.000000,740.000000) scale(0.100000,-0.100000)"
fill="#000000" stroke="none">
<path d="M1237 6016 c8 -13 404 -543 1291 -1729 337 -450 612 -822 612 -828 0
-5 -141 -162 -313 -347 -246 -265 -1469 -1587 -1585 -1715 l-26 -27 216 0 215
0 104 113 c57 62 381 412 719 777 338 366 671 726 740 801 69 76 127 137 130
137 3 1 30 -34 61 -76 31 -42 338 -454 683 -914 l626 -838 735 0 c404 0 735 2
735 5 0 4 -192 262 -1484 1989 l-537 719 24 26 c13 14 196 213 407 441 386
418 463 501 1044 1128 175 189 316 344 315 345 -2 1 -101 0 -219 -3 l-215 -5
-255 -275 c-421 -453 -1120 -1208 -1203 -1299 -43 -48 -84 -87 -90 -88 -7 -1
-237 300 -512 668 -275 369 -556 746 -625 837 l-125 167 -737 1 c-538 1 -736
-2 -731 -10z m1448 -493 c77 -104 474 -636 884 -1183 409 -547 837 -1119 950
-1270 112 -151 372 -498 576 -770 204 -272 390 -521 413 -552 l43 -58 -343 0
-343 1 -210 282 c-116 155 -788 1055 -1495 2000 -707 945 -1286 1722 -1288
1727 -2 6 123 10 335 10 l339 0 139 -187z"/>
</g>
</svg>
